<mxfile host="65bd71144e">
    <diagram id="OZ-TlJJMzsLW0B0cCPwE" name="Page-1">
        <mxGraphModel dx="896" dy="620" grid="1" gridSize="10" guides="1" tooltips="1" connect="1" arrows="1" fold="1" page="1" pageScale="1" pageWidth="850" pageHeight="1100" math="0" shadow="0">
            <root>
                <mxCell id="0"/>
                <mxCell id="1" parent="0"/>
                <mxCell id="6" value="Start" style="ellipse" vertex="1" parent="1">
                    <mxGeometry x="100" y="60" width="120" height="50" as="geometry"/>
                </mxCell>
                <mxCell id="7" value="Display Menu (a,b,c)" style="shape=parallelogram" vertex="1" parent="1">
                    <mxGeometry x="100" y="150" width="160" height="80" as="geometry"/>
                </mxCell>
                <mxCell id="8" value="Input Choice" style="shape=parallelogram" vertex="1" parent="1">
                    <mxGeometry x="100" y="270" width="160" height="80" as="geometry"/>
                </mxCell>
                <mxCell id="9" value="Choice = a ?" style="rhombus" vertex="1" parent="1">
                    <mxGeometry x="100" y="390" width="160" height="80" as="geometry"/>
                </mxCell>
                <mxCell id="10" value="Speed = Distance รท Time" style="rectangle" vertex="1" parent="1">
                    <mxGeometry x="360" y="380" width="200" height="80" as="geometry"/>
                </mxCell>
                <mxCell id="11" value="Choice = b ?" style="rhombus" vertex="1" parent="1">
                    <mxGeometry x="100" y="510" width="160" height="80" as="geometry"/>
                </mxCell>
                <mxCell id="12" value="Time = Distance รท Speed" style="rectangle" vertex="1" parent="1">
                    <mxGeometry x="350" y="510" width="200" height="80" as="geometry"/>
                </mxCell>
                <mxCell id="13" value="Choice = c ?" style="rhombus" vertex="1" parent="1">
                    <mxGeometry x="100" y="630" width="160" height="80" as="geometry"/>
                </mxCell>
                <mxCell id="14" value="Distance = Speed ร Time" style="rectangle" vertex="1" parent="1">
                    <mxGeometry x="350" y="630" width="200" height="80" as="geometry"/>
                </mxCell>
                <mxCell id="38" style="edgeStyle=none;html=1;exitX=1;exitY=0.5;exitDx=0;exitDy=0;" edge="1" parent="1" source="15" target="16">
                    <mxGeometry relative="1" as="geometry"/>
                </mxCell>
                <mxCell id="15" value="ERROR 404&#xa;Invalid Choice" style="rectangle" vertex="1" parent="1">
                    <mxGeometry x="240" y="740" width="180" height="80" as="geometry"/>
                </mxCell>
                <mxCell id="16" value="Do you want to calculate again? (y/n)" style="shape=parallelogram" vertex="1" parent="1">
                    <mxGeometry x="610" y="730" width="250" height="80" as="geometry"/>
                </mxCell>
                <mxCell id="17" value="Answer = y ?" style="rhombus" vertex="1" parent="1">
                    <mxGeometry x="400" y="880" width="160" height="80" as="geometry"/>
                </mxCell>
                <mxCell id="18" value="Thanks for using the calculator" style="rectangle" vertex="1" parent="1">
                    <mxGeometry x="355" y="1020" width="250" height="80" as="geometry"/>
                </mxCell>
                <mxCell id="19" value="End" style="ellipse" vertex="1" parent="1">
                    <mxGeometry x="430" y="1150" width="120" height="60" as="geometry"/>
                </mxCell>
                <mxCell id="20" style="endArrow=block;" edge="1" parent="1" source="6" target="7">
                    <mxGeometry relative="1" as="geometry"/>
                </mxCell>
                <mxCell id="21" style="endArrow=block;" edge="1" parent="1" source="7" target="8">
                    <mxGeometry relative="1" as="geometry"/>
                </mxCell>
                <mxCell id="22" style="endArrow=block;" edge="1" parent="1" source="8" target="9">
                    <mxGeometry relative="1" as="geometry"/>
                </mxCell>
                <mxCell id="23" style="endArrow=block;" edge="1" parent="1" source="9" target="10">
                    <mxGeometry relative="1" as="geometry"/>
                </mxCell>
                <mxCell id="24" style="endArrow=block;" edge="1" parent="1" source="9" target="11">
                    <mxGeometry relative="1" as="geometry"/>
                </mxCell>
                <mxCell id="25" style="endArrow=block;" edge="1" parent="1" source="11" target="12">
                    <mxGeometry relative="1" as="geometry"/>
                </mxCell>
                <mxCell id="26" style="endArrow=block;" edge="1" parent="1" source="11" target="13">
                    <mxGeometry relative="1" as="geometry"/>
                </mxCell>
                <mxCell id="27" style="endArrow=block;" edge="1" parent="1" source="13" target="14">
                    <mxGeometry relative="1" as="geometry"/>
                </mxCell>
                <mxCell id="28" style="endArrow=block;" edge="1" parent="1" source="13" target="15">
                    <mxGeometry relative="1" as="geometry"/>
                </mxCell>
                <mxCell id="29" style="endArrow=block;" edge="1" parent="1" source="10" target="16">
                    <mxGeometry relative="1" as="geometry"/>
                </mxCell>
                <mxCell id="30" style="endArrow=block;" edge="1" parent="1" source="12" target="16">
                    <mxGeometry relative="1" as="geometry"/>
                </mxCell>
                <mxCell id="31" style="endArrow=block;" edge="1" parent="1" source="14" target="16">
                    <mxGeometry relative="1" as="geometry"/>
                </mxCell>
                <mxCell id="33" style="endArrow=block;" edge="1" parent="1" source="16" target="17">
                    <mxGeometry relative="1" as="geometry"/>
                </mxCell>
                <mxCell id="34" style="endArrow=block;" edge="1" parent="1" source="17" target="7">
                    <mxGeometry relative="1" as="geometry"/>
                </mxCell>
                <mxCell id="35" style="endArrow=block;" edge="1" parent="1" source="17" target="18">
                    <mxGeometry relative="1" as="geometry"/>
                </mxCell>
                <mxCell id="36" style="endArrow=block;" edge="1" parent="1" source="18" target="19">
                    <mxGeometry relative="1" as="geometry"/>
                </mxCell>
            </root>
        </mxGraphModel>
    </diagram>
</mxfile>